<svg xmlns="http://www.w3.org/2000/svg" xmlns:xlink="http://www.w3.org/1999/xlink" width="1920" height="790" viewBox="0 0 1920 790"><defs><filter id="a" x="-87.873" y="-5.913" width="2017.253" height="1065.772" filterUnits="userSpaceOnUse"><feOffset dy="3" input="SourceAlpha"/><feGaussianBlur stdDeviation="3" result="b"/><feFlood flood-opacity="0.161"/><feComposite operator="in" in2="b"/><feComposite in="SourceGraphic"/></filter><filter id="c" x="-87.873" y="44.087" width="2017.253" height="1065.772" filterUnits="userSpaceOnUse"><feOffset dy="3" input="SourceAlpha"/><feGaussianBlur stdDeviation="3" result="d"/><feFlood flood-opacity="0.161"/><feComposite operator="in" in2="d"/><feComposite in="SourceGraphic"/></filter><clipPath id="f"><rect width="1920" height="790"/></clipPath></defs><g id="e" clip-path="url(#f)"><rect width="1920" height="790" fill="#fff"/><g transform="translate(0 -2335)"><g transform="matrix(1, 0, 0, 1, 0, 2335)" filter="url(#a)"><path d="M4.482,669.318S260.532,1069.1,633.449,969.655s358.388-190.376,664.4-113.873,454.029,249.846,628.057,206.753,0-1040.989,0-1040.989H4Z" transform="translate(1924.38 1069.41) rotate(180)" fill="#f42191" opacity="0.19"/></g><g transform="matrix(1, 0, 0, 1, 0, 2335)" filter="url(#c)"><path d="M4.482,669.318S260.532,1069.1,633.449,969.655s358.388-190.376,664.4-113.873,454.029,249.846,628.057,206.753,0-1040.989,0-1040.989H4Z" transform="translate(1924.38 1119.41) rotate(180)" fill="#001582"/></g></g></g></svg>