<svg xmlns="http://www.w3.org/2000/svg" xmlns:xlink="http://www.w3.org/1999/xlink" width="1928" height="749" viewBox="0 0 1928 749">
  <defs>
    <style>
      .cls-1 {
        clip-path: url(#clip-Artboard_2);
      }

      .cls-2 {
        fill: #f42190;
        opacity: 0.19;
      }

      .cls-3 {
        fill: #001988;
      }

      .cls-4 {
        fill: #fff;
      }

      .cls-5 {
        filter: url(#Path_29);
      }
    </style>
    <filter id="Path_29" x="-75" y="30.546" width="2012.38" height="1083.313" filterUnits="userSpaceOnUse">
      <feOffset dy="3" input="SourceAlpha"/>
      <feGaussianBlur stdDeviation="3" result="blur"/>
      <feFlood flood-opacity="0.161"/>
      <feComposite operator="in" in2="blur"/>
      <feComposite in="SourceGraphic"/>
    </filter>
    <clipPath id="clip-Artboard_2">
      <rect width="1928" height="749"/>
    </clipPath>
  </defs>
  <g id="Artboard_2" data-name="Artboard – 2" class="cls-1">
    <rect class="cls-4" width="1928" height="749"/>
    <g id="Group_56" data-name="Group 56" transform="translate(8 -2371)">
      <path id="Path_28" data-name="Path 28" class="cls-2" d="M4,805.5s367.259,326.509,740.176,227.065,485.62-149.167,669.592-77.9,331.481,164.324,505.509,121.232,6.63-1054.351,6.63-1054.351H4Z" transform="translate(1924.38 3457.406) rotate(180)"/>
      <g class="cls-5" transform="matrix(1, 0, 0, 1, -8, 2371)">
        <path id="Path_29-2" data-name="Path 29" class="cls-3" d="M4,805.5s367.259,326.509,740.176,227.065,485.62-149.167,669.592-77.9,331.481,164.324,505.509,121.232,6.63-1054.351,6.63-1054.351H4Z" transform="translate(1932.38 1123.41) rotate(180)"/>
      </g>
    </g>
  </g>
</svg>
