<svg xmlns="http://www.w3.org/2000/svg" width="904.668" height="132.094" viewBox="0 0 904.668 132.094"><g transform="translate(311.518 -776.313)"><g transform="translate(-311.518 776.313)"><path d="M-249.2,786.862a20.3,20.3,0,0,0-8.632-1.478q-6.742,0-8.533.1,0,.741.1,6.165t.108,9.319c0,.772.014,1.916.052,3.421s.052,2.688.052,3.53h4.74q7.06.212,10.109-.63a9.071,9.071,0,0,0,5.478-4.057,13.228,13.228,0,0,0,2.212-7Q-243.4,789.491-249.2,786.862Z" transform="translate(478.873 -742.692)" fill="#fff"/><path d="M-176.64,786.414q-1.059,3.261-9.163,26.224,10.321,0,18.115-.212-.424-1.263-4.109-11.954T-176.64,786.414Z" transform="translate(777.469 -738.875)" fill="#fff"/><path d="M-271.278,786.414q-1.052,3.261-9.163,26.224,10.321,0,18.115-.212-.424-1.263-4.109-11.954T-271.278,786.414Z" transform="translate(426.702 -738.875)" fill="#fff"/><path d="M-311.518,776.313V908.248H418.45V776.313Zm114.187,100.619a8.065,8.065,0,0,1-5.318,1.788q-6.636,0-7.267-5.789-1.264-11.8-3.9-40.974l-14.533,39.284q-2.316,5.267-8.533,5.163a6.751,6.751,0,0,1-3.633-1.106,6.431,6.431,0,0,1-1.948-1.948c-.348-.631-.842-1.685-1.473-3.158L-257.2,831.435q-.847,6.106-2.687,22.958t-2.16,18.538q-1.052,5.789-7.37,5.789a7.24,7.24,0,0,1-5.427-2.1,6.158,6.158,0,0,1-1.628-5.375q1.158-6.735,2.843-18.585t3.473-24.751q1.793-12.9,2.316-16.586a5.491,5.491,0,0,1,3.426-3.845,13.857,13.857,0,0,1,6.053-1.106q5.266.106,7.69,6.74l13.794,40.546a9.145,9.145,0,0,0,.424,1.37c.212.565.348.951.419,1.158l.739-2q4.949-12,15.588-41.073l.419-.739c.212-.56.372-.965.475-1.21a10.993,10.993,0,0,1,.631-1.158,8.957,8.957,0,0,1,.9-1.266,14.639,14.639,0,0,1,1.049-1.05,5.733,5.733,0,0,1,1.421-.951,5.491,5.491,0,0,1,1.633-.475,25.369,25.369,0,0,1,3.793-.1q4.631.53,5.9,2.951a82.074,82.074,0,0,1,1.788,10.264q1.059,7.85,3.163,25.805t3.158,26.591A5.814,5.814,0,0,1-197.331,876.932Zm71.726-.212a8.917,8.917,0,0,1-5.742,1.9,6.735,6.735,0,0,1-6.843-4.527l-4.843-12.43q-2-.106-16.43-.1h-9.794l-4.532,12.006q-2.1,4.949-6.316,4.951a10.558,10.558,0,0,1-6.005-1.69,5.872,5.872,0,0,1-2.527-5.267,17.7,17.7,0,0,1,1.793-6.631q6.735-14.853,9.794-22.751l12.637-30.963a7.357,7.357,0,0,1,3.21-3.633,9.611,9.611,0,0,1,4.9-1.318q6.742,0,8.848,5.266.84,2,13.479,33.7a15.727,15.727,0,0,1,.843,1.793,15.542,15.542,0,0,0,.842,1.789q5.8,14.43,7.9,19.169a12.22,12.22,0,0,1,1.163,4.528A5.4,5.4,0,0,1-125.605,876.719Zm63.668-46.127A25.209,25.209,0,0,1-67.1,845.337a21.551,21.551,0,0,1-12.849,8.424q-3.791.734-14.637.734h-4.32q-.106,3.163,0,9.215t.108,8.584q0,6.318-7.69,6.321-7.264,0-7.267-6.005,0-8.74.212-36.752,0-1.687-.108-7.375t-.1-7.267c0-.489-.019-1.28-.052-2.367s-.052-1.968-.052-2.636.033-1.421.1-2.264a9.459,9.459,0,0,1,.424-2.212q1.574-4.631,6.947-5.158,1.476-.106,15.8-.424,11.168-.211,18.957,4.74Q-61.518,817.426-61.937,830.592Zm84.259-19.221a6.98,6.98,0,0,1-3.374.579H-1.7v7.37q0,4.85.056,11.008t.155,18.43q.106,12.27.212,25.433a5.806,5.806,0,0,1-.687,3.21,2.775,2.775,0,0,1-2.471,1,2.551,2.551,0,0,1-2.109-.791,4.846,4.846,0,0,1-.631-2.894l.1-40.442q0-3.685-.052-11.163t-.052-11.164q-11.063,0-22.116.1-2.845,0-2.847-2.734a2.651,2.651,0,0,1,.791-1.953,2.935,2.935,0,0,1,2.16-.786c.631,0,1.807.014,3.53.052s4.386.052,8,.052H-4.326q3.685,0,13.479-.1t10.429-.108q3.685,0,3.685,2.527A2.572,2.572,0,0,1,22.322,811.371Zm63.3,67.141q-3.057,0-3.055-2.848v-10.74l-.1-18.43q-6.742,0-20.223.155t-21.273.16l.212,28.855q0,2.845-3.055,2.848a3.161,3.161,0,0,1-2.057-.739,2.453,2.453,0,0,1-.894-2q0-4.32.16-18.275t.052-21.536l-.423-26.224a2.806,2.806,0,0,1,3.163-3.054,2.421,2.421,0,0,1,2.739,2.739q0,12.637.1,31.806H54.231q3.374,0,10.321-.052t10.429-.056l7.582-.1q0-4-.1-15.376T82.352,811a8.315,8.315,0,0,1,.579-3.69A2.464,2.464,0,0,1,85.3,806.26q2.845,0,2.843,3.793,0,.636-.052,16.275t.052,16.9l.315,32.545Q88.461,878.512,85.618,878.513Zm64.139-.951c-.631.49-1.9.739-3.789.739H119.005q-7.264,0-9-.9t-1.737-5.107c0-.984.066-2.527.207-4.631v-.315c0-.282.019-.654.052-1.111s.056-1.035.056-1.736.014-1.525.052-2.476.052-2,.052-3.158v-4.057q0-2.316.052-4.791t.052-5.634v-6.424q0-4.631.057-13.954t.052-14.058a2.837,2.837,0,0,1,.894-2.321,3.607,3.607,0,0,1,1.948-.842c.7-.066,1.859-.1,3.473-.1h5.478q3.579,0,12.373-.1t12.27-.108a6.271,6.271,0,0,1,3.53.687,2.543,2.543,0,0,1,.894,2.16,2.3,2.3,0,0,1-2.424,2.631q-3.89,0-13.164-.052t-13.164-.057h-6.424q-.106,5.478-.1,15.588v13.06h6.109q11.9,0,19.8-.315a6.366,6.366,0,0,1,3.158.579,2.212,2.212,0,0,1,.946,2.052q0,2.634-3.789,2.636-2.111,0-13.9.052t-12.43.052v8.424q0,3.057-.155,9.427t-.16,9.427q14.43,0,31.6-.212c.278,0,.682-.014,1.21-.052s.927-.052,1.21-.052q2.633,0,2.636,2.527A3.014,3.014,0,0,1,149.757,877.562Zm93.526-7.582q-8.74,8.951-24.327,8.951A32.225,32.225,0,0,1,194.68,868.61q-9.848-10.321-9.846-26.328,0-15.694,10.792-26.172a35.547,35.547,0,0,1,25.645-10.481q11.585,0,19.8,4.951,4.525,2.633,4.528,6.109a7.6,7.6,0,0,1-1.633,4.688,4.994,4.994,0,0,1-4.16,2.156,12.723,12.723,0,0,1-6.528-2.1,24.636,24.636,0,0,0-12.218-3.055q-8.422,0-14.952,6.74a22.606,22.606,0,0,0-6.532,16.326q0,11.161,5.794,17.64t15.376,6.476q7.688,0,12.166-4.791a16.08,16.08,0,0,0,4.579-11.008h-8.843a5.791,5.791,0,0,1-4.269-1.788,6.343,6.343,0,0,1-1.525-4.424q0-6,6.212-6.109h15.06q4.525,0,6.213,2.424t1.685,7.163Q252.022,861.028,243.283,869.98Zm76.517,6.739a8.917,8.917,0,0,1-5.742,1.9,6.731,6.731,0,0,1-6.843-4.527l-4.848-12.43q-2-.106-16.43-.1h-9.794l-4.528,12.006q-2.1,4.949-6.316,4.951a10.558,10.558,0,0,1-6.005-1.69,5.873,5.873,0,0,1-2.527-5.267,17.764,17.764,0,0,1,1.788-6.631q6.742-14.853,9.794-22.751l12.641-30.963a7.357,7.357,0,0,1,3.21-3.633,9.611,9.611,0,0,1,4.9-1.318q6.742,0,8.848,5.266.84,2,13.479,33.7a15.719,15.719,0,0,1,.842,1.793,14.761,14.761,0,0,0,.842,1.789q5.789,14.43,7.9,19.169a12.2,12.2,0,0,1,1.158,4.528A5.4,5.4,0,0,1,319.8,876.719Zm63.668-46.127a25.242,25.242,0,0,1-5.163,14.745,21.551,21.551,0,0,1-12.848,8.424q-3.791.734-14.637.734H346.5q-.106,3.163,0,9.215t.108,8.584q0,6.318-7.69,6.321-7.264,0-7.267-6.005,0-8.74.212-36.752,0-1.687-.108-7.375t-.1-7.267c0-.489-.019-1.28-.052-2.367s-.056-1.968-.056-2.636.038-1.421.108-2.264a9.728,9.728,0,0,1,.419-2.212q1.581-4.631,6.951-5.158,1.476-.106,15.8-.424,11.161-.211,18.957,4.74Q383.887,817.426,383.468,830.592Z" transform="translate(311.518 -776.313)" fill="#fff"/><path d="M-154.563,786.862a20.307,20.307,0,0,0-8.636-1.478q-6.742,0-8.528.1,0,.741.1,6.165t.108,9.319c0,.772.014,1.916.052,3.421s.052,2.688.052,3.53h4.739q7.052.212,10.109-.63a9.1,9.1,0,0,0,5.478-4.057,13.229,13.229,0,0,0,2.212-7Q-148.767,789.491-154.563,786.862Z" transform="translate(829.64 -742.692)" fill="#fff"/></g><rect width="37.716" height="131.937" transform="translate(438.969 776.47)" fill="#fff"/><rect width="37.716" height="131.937" transform="translate(497.202 776.47)" fill="#fff"/><rect width="37.716" height="131.937" transform="translate(555.434 776.47)" fill="#fff"/></g></svg>