<svg xmlns="http://www.w3.org/2000/svg" width="118.085" height="133.84" viewBox="0 0 118.085 133.84"><g><g><g><path fill="#001988" d="M281.752,58.6,229.552,6.39a7.845,7.845,0,1,0-11.1,11.093l52.207,52.2A7.841,7.841,0,0,0,281.752,58.6Z" transform="translate(-30.136) translate(78.765 1.072) translate(0) translate(-216.163 -4.1)"/></g></g><g><path fill="#001988" d="M156.478,82.905l-.393,1.969a84.293,84.293,0,0,1-18.591,37.655l28.4,28.4c10.658-9.1,23.629-16,37.473-18.773l1.973-.393Z" transform="translate(-30.136) translate(58.2 21.672) translate(-137.494 -82.905)"/></g><g><g><path fill="#001988" d="M52.993,256.989,33.583,276.4a11.762,11.762,0,0,0,0,16.638l11.089,11.089a11.762,11.762,0,0,0,16.638,0l19.408-19.408Zm2.772,30.5a3.921,3.921,0,0,1-5.545-5.544l5.545-5.545a3.921,3.921,0,0,1,5.545,5.545Z" transform="translate(-30.136) translate(30.136 67.179) translate(0) translate(-30.136 -256.989)"/></g></g><g><path fill="#001988" d="M216.5,372.007l5.334-5.334a11.753,11.753,0,0,0,0-16.634l-3.962-3.965a74.207,74.207,0,0,0-6.314,4.775l4.732,4.738a3.912,3.912,0,0,1,0,5.541l-5.422,5.422-7.968-7.72-11.09,11.09L209.6,387.16a7.843,7.843,0,0,0,11.085-11.1Z" transform="translate(-30.136) translate(72.399 90.466) translate(-191.813 -346.075)"/></g><g><path fill="#001988" d="M335.785,0a3.919,3.919,0,0,0-3.921,3.921v7.842a3.921,3.921,0,0,0,7.842,0V3.921A3.919,3.919,0,0,0,335.785,0Z" transform="translate(-30.136) translate(109.01) translate(-331.864)"/></g><g><path fill="#001988" d="M433.627,120h-7.842a3.921,3.921,0,0,0,0,7.842h7.842a3.921,3.921,0,1,0,0-7.842Z" transform="translate(-30.136) translate(132.536 31.369) translate(-421.864 -120)"/></g><g><path fill="#001988" d="M406.4,31.148a3.92,3.92,0,0,0-5.545,0l-7.842,7.842a3.921,3.921,0,0,0,5.545,5.545l7.842-7.842A3.92,3.92,0,0,0,406.4,31.148Z" transform="translate(-30.136) translate(124.694 7.842) translate(-391.864 -30)"/></g></g></svg>