<svg xmlns="http://www.w3.org/2000/svg" width="120.389" height="137.943" viewBox="0 0 120.389 137.943"><g transform="translate(-100 -335)"><g transform="translate(100 335)"><g transform="translate(0)"><g transform="translate(47.485 88.913)"><path d="M147.73,192.032a1.729,1.729,0,0,0-2.321-1.6,56.71,56.71,0,0,1-10.39,1.387,56.708,56.708,0,0,1-10.39-1.387,1.729,1.729,0,0,0-2.321,1.6v6.21a2.287,2.287,0,0,0,2.4,2.141h20.625a2.287,2.287,0,0,0,2.4-2.141Z" transform="translate(-122.309 -190.362)" fill="#001988"/></g><g transform="translate(23.742)"><path d="M146.291,4.284A4.563,4.563,0,0,0,141.494,0H78.182a4.562,4.562,0,0,0-4.8,4.284v35.34c0,11.062,3.684,21.131,10.373,28.352a35.807,35.807,0,0,0,52.16,0c6.689-7.221,10.373-17.29,10.373-28.352Z" transform="translate(-73.385)" fill="#001988"/></g><g transform="translate(0 4.855)"><path d="M43.64,54.554c-6.564-2.181-9.586-7.241-9.586-15.651V19.769h8.874V11.2H29.259a4.562,4.562,0,0,0-4.8,4.284V38.9c0,14.286,7.662,22.988,21.75,25.02A47.483,47.483,0,0,1,43.64,54.554Z" transform="translate(-24.462 -11.202)" fill="#001988"/></g><g transform="translate(23.742 108.172)"><path d="M78.182,228.31a4.562,4.562,0,0,0-4.8,4.284v21.2a4.562,4.562,0,0,0,4.8,4.284h63.313a4.562,4.562,0,0,0,4.8-4.284v-21.2a4.562,4.562,0,0,0-4.8-4.284Z" transform="translate(-73.385 -228.31)" fill="#001988"/></g><g transform="translate(98.64 4.855)"><path d="M244.673,11.2H231v8.567h8.874V38.9c0,8.41-3.022,13.47-9.586,15.651a47.432,47.432,0,0,1-2.572,9.369c14.088-2.033,21.75-10.735,21.75-25.02V15.486A4.561,4.561,0,0,0,244.673,11.2Z" transform="translate(-227.719 -11.202)" fill="#001988"/></g></g></g></g></svg>