<svg xmlns="http://www.w3.org/2000/svg" width="136.386" height="127" viewBox="0 0 136.386 127"><g transform="translate(-0.001 -17.047)"><g transform="translate(0.001 17.047)"><path d="M134.1,74.439l-20.67-20.67V29.892a7.817,7.817,0,0,0-15.635,0v8.243L82.4,22.744a20.566,20.566,0,0,0-28.431.014L2.289,74.439a7.819,7.819,0,0,0,11.06,11.056L65.026,33.812a4.615,4.615,0,0,1,6.325,0l51.687,51.688A7.819,7.819,0,1,0,134.1,74.439Z" transform="translate(-0.001 -17.047)" fill="#001988"/><path d="M120.642,128.873a3.837,3.837,0,0,0-5.43,0L69.752,174.32a3.848,3.848,0,0,0-1.125,2.719v33.147a14.085,14.085,0,0,0,14.085,14.085h22.507V189.415h25.41v34.856h22.508a14.085,14.085,0,0,0,14.084-14.084V177.039a3.833,3.833,0,0,0-1.125-2.719Z" transform="translate(-49.734 -97.271)" fill="#001988"/></g></g></svg>