<svg xmlns="http://www.w3.org/2000/svg" width="902.069" height="88.758" viewBox="0 0 902.069 88.758"><g transform="translate(-3.473 -4.748)"><rect width="25.098" height="87.798" transform="translate(802.943 4.748)" fill="#e1077f"/><rect width="25.098" height="87.798" transform="translate(841.694 4.748)" fill="#0c256b"/><rect width="25.098" height="87.798" transform="translate(880.445 4.748)" fill="#007baf"/><g transform="translate(3.473 9.733)"><path d="M22.512,61.369q-2.107,19.257-2.469,21.184-1.2,6.623-8.426,6.621a8.282,8.282,0,0,1-6.2-2.408A7.026,7.026,0,0,1,3.557,80.63Q4.879,72.925,6.8,59.381T10.777,31.1q2.044-14.746,2.649-18.959a6.282,6.282,0,0,1,3.912-4.393,15.814,15.814,0,0,1,6.919-1.263q6.022.114,8.789,7.7L48.814,60.526a10.9,10.9,0,0,0,.477,1.565c.244.641.4,1.084.485,1.324l.843-2.286q5.656-13.722,17.815-46.944l.481-.84c.24-.645.42-1.1.542-1.389a12.322,12.322,0,0,1,.721-1.32A9.857,9.857,0,0,1,71.2,9.189q.481-.538,1.2-1.2A6.333,6.333,0,0,1,74.029,6.9a6.174,6.174,0,0,1,1.866-.538,28.7,28.7,0,0,1,4.332-.126q5.3.607,6.743,3.374a93.453,93.453,0,0,1,2.046,11.731q1.2,8.976,3.61,29.492t3.61,30.393a6.649,6.649,0,0,1-2.225,5.9,9.214,9.214,0,0,1-6.079,2.046q-7.585,0-8.3-6.621-1.448-13.481-4.454-46.822L58.561,80.63q-2.645,6.011-9.747,5.9a7.656,7.656,0,0,1-4.152-1.267,7.194,7.194,0,0,1-2.229-2.225q-.6-1.082-1.687-3.61L25.58,35.128Q24.619,42.106,22.512,61.369Z" transform="translate(-3.473 -5.64)" fill="#1a1818"/><path d="M31.85,73.285q7.705-16.973,11.193-26L57.488,11.9a8.393,8.393,0,0,1,3.671-4.152,10.959,10.959,0,0,1,5.595-1.5q7.705,0,10.113,6.015.962,2.284,15.406,38.518a17.546,17.546,0,0,1,.962,2.046,17.234,17.234,0,0,0,.962,2.046q6.623,16.492,9.029,21.909a13.965,13.965,0,0,1,1.324,5.175,6.165,6.165,0,0,1-2.71,4.812,10.16,10.16,0,0,1-6.56,2.168q-5.776,0-7.823-5.175l-5.537-14.2q-2.284-.12-18.776-.122H51.95L46.771,83.154q-2.4,5.656-7.22,5.656a12.083,12.083,0,0,1-6.858-1.923A6.714,6.714,0,0,1,29.8,80.868,20.207,20.207,0,0,1,31.85,73.285ZM56.526,56.314q11.792,0,20.7-.244-.481-1.443-4.694-13.659t-5.537-16.07Q65.792,30.079,56.526,56.314Z" transform="translate(70.683 -5.519)" fill="#1a1818"/><path d="M52.441,31.738c-.08-4.335-.122-7.1-.122-8.3q0-.842-.061-2.71T52.2,17.717q0-1.145.118-2.591A10.93,10.93,0,0,1,52.8,12.6q1.809-5.3,7.946-5.9,1.683-.114,18.055-.481,12.76-.24,21.665,5.419,11.558,7.465,11.075,22.509A28.832,28.832,0,0,1,105.645,51a24.613,24.613,0,0,1-14.689,9.625q-4.328.847-16.727.847H69.29q-.12,3.606,0,10.529t.122,9.812q0,7.224-8.785,7.22-8.306,0-8.308-6.858,0-9.995.24-42.01Q52.56,38.235,52.441,31.738ZM69.474,42.63q.057,2.593.057,4.034H74.95q8.06.24,11.552-.721a10.385,10.385,0,0,0,6.263-4.633A15.128,15.128,0,0,0,95.291,33.3q.12-7.705-6.5-10.712Q85.3,20.907,78.923,20.9q-7.705,0-9.751.122,0,.842.118,7.041t.122,10.651Q69.413,40.04,69.474,42.63Z" transform="translate(133.76 -5.619)" fill="#1a1818"/><path d="M123.865,6.424q11.2-.114,11.918-.118,4.207,0,4.213,2.889c0,1.362-.363,2.271-1.088,2.71a7.963,7.963,0,0,1-3.851.664H111.466v8.423q0,5.541.061,12.579t.179,21.062q.12,14.025.24,29.069a6.635,6.635,0,0,1-.782,3.671,3.169,3.169,0,0,1-2.828,1.145,2.91,2.91,0,0,1-2.4-.9,5.5,5.5,0,0,1-.725-3.313l.122-46.223q0-4.207-.061-12.754t-.061-12.758q-12.64,0-25.275.118-3.252,0-3.251-3.129a3.01,3.01,0,0,1,.9-2.225,3.331,3.331,0,0,1,2.465-.908c.721,0,2.068.023,4.034.065s5.015.061,9.148.061h15.227Q112.672,6.55,123.865,6.424Z" transform="translate(202.7 -5.344)" fill="#1a1818"/><path d="M157.919,85.681q0,3.131-3.248,3.129-3.492,0-3.492-3.248V73.285l-.118-21.062q-7.705,0-23.112.176t-24.314.183l.24,32.981q0,3.252-3.492,3.248a3.592,3.592,0,0,1-2.347-.84,2.82,2.82,0,0,1-1.023-2.29q0-4.929.183-20.883t.057-24.615l-.481-29.969q.12-3.492,3.61-3.488,3.131,0,3.133,3.126,0,14.443.118,36.35H118.8q3.853,0,11.8-.057t11.915-.061l8.667-.118q0-4.58-.118-17.578t-.122-16.727a9.481,9.481,0,0,1,.664-4.217,2.806,2.806,0,0,1,2.706-1.2q3.252,0,3.251,4.328,0,.721-.061,18.6t.061,19.322Z" transform="translate(259.291 -5.519)" fill="#1a1818"/><path d="M120.477,7.63a4.1,4.1,0,0,1,2.229-.962c.8-.084,2.126-.118,3.969-.118h6.259q4.093,0,14.143-.126T161.1,6.306q3.005,0,4.03.782a2.912,2.912,0,0,1,1.023,2.469c0,1.927-.92,2.927-2.767,3.011q-4.454,0-15.048-.065T133.3,12.446h-7.343q-.12,6.257-.122,17.815V45.187h6.98q13.607,0,22.631-.363a7.252,7.252,0,0,1,3.61.664,2.522,2.522,0,0,1,1.084,2.347q0,3.005-4.332,3.007-2.41,0-15.891.061t-14.2.057v9.632q0,3.486-.179,10.773t-.183,10.77q16.492,0,36.11-.237c.321,0,.782-.023,1.385-.065s1.061-.057,1.382-.057q3.011,0,3.011,2.885a3.445,3.445,0,0,1-1.084,2.893q-1.082.841-4.332.843H131.01q-8.306,0-10.293-1.027t-1.988-5.835q0-1.689.24-5.3v-.359c0-.321.023-.744.065-1.263s.057-1.187.057-1.988.023-1.748.061-2.828.057-2.29.057-3.61V61.555q0-2.645.065-5.476t.057-6.438V42.3q0-5.3.061-15.948t.061-16.07A3.234,3.234,0,0,1,120.477,7.63Z" transform="translate(321.123 -5.344)" fill="#1a1818"/><path d="M205.937,11.714q5.181,3.005,5.179,6.98a8.689,8.689,0,0,1-1.866,5.354,5.713,5.713,0,0,1-4.755,2.469,14.532,14.532,0,0,1-7.465-2.408,28.147,28.147,0,0,0-13.96-3.488q-9.629,0-17.093,7.7a25.824,25.824,0,0,0-7.461,18.658q0,12.754,6.618,20.158t17.574,7.4q8.787,0,13.9-5.476a18.369,18.369,0,0,0,5.236-12.579H191.737a6.6,6.6,0,0,1-4.877-2.046,7.249,7.249,0,0,1-1.744-5.053q0-6.869,7.1-6.984h17.212q5.175,0,7.1,2.767t1.927,8.186q0,16.011-9.991,26.241T180.662,89.826a36.834,36.834,0,0,1-27.745-11.792q-11.254-11.8-11.254-30.092,0-17.935,12.338-29.912A40.641,40.641,0,0,1,183.31,6.054Q196.551,6.054,205.937,11.714Z" transform="translate(385.713 -6.054)" fill="#1a1818"/><path d="M165.254,73.285q7.705-16.973,11.193-26L190.892,11.9a8.393,8.393,0,0,1,3.671-4.152,10.973,10.973,0,0,1,5.6-1.5q7.7,0,10.109,6.015.962,2.284,15.406,38.518a18.05,18.05,0,0,1,.965,2.046,17.241,17.241,0,0,0,.962,2.046q6.618,16.492,9.026,21.909a13.891,13.891,0,0,1,1.324,5.175,6.154,6.154,0,0,1-2.71,4.812,10.15,10.15,0,0,1-6.556,2.168q-5.782,0-7.827-5.175l-5.534-14.2q-2.29-.12-18.78-.122H185.355L180.18,83.154q-2.41,5.656-7.22,5.656a12.087,12.087,0,0,1-6.862-1.923,6.714,6.714,0,0,1-2.889-6.018A20.281,20.281,0,0,1,165.254,73.285Zm24.676-16.971q11.792,0,20.7-.244-.487-1.443-4.7-13.659T200.4,26.341Q199.2,30.079,189.931,56.314Z" transform="translate(446.393 -5.519)" fill="#1a1818"/><path d="M185.846,31.738c-.08-4.335-.118-7.1-.118-8.3,0-.561-.023-1.465-.061-2.71s-.061-2.248-.061-3.007.038-1.626.122-2.591a10.929,10.929,0,0,1,.481-2.526q1.8-5.3,7.942-5.9,1.689-.114,18.055-.481,12.76-.24,21.665,5.419,11.558,7.465,11.075,22.509A28.832,28.832,0,0,1,239.05,51a24.6,24.6,0,0,1-14.685,9.625q-4.333.847-16.731.847H202.7q-.12,3.606,0,10.529t.122,9.812q0,7.224-8.785,7.22-8.306,0-8.3-6.858,0-9.995.24-42.01Q185.969,38.235,185.846,31.738ZM202.879,42.63c.042,1.729.057,3.072.057,4.034h5.419q8.066.24,11.556-.721a10.377,10.377,0,0,0,6.259-4.633A15.129,15.129,0,0,0,228.7,33.3q.12-7.705-6.5-10.712-3.492-1.683-9.869-1.687-7.705,0-9.751.122,0,.842.118,7.041t.122,10.651C202.818,39.6,202.84,40.9,202.879,42.63Z" transform="translate(509.47 -5.619)" fill="#1a1818"/></g></g></svg>