<svg xmlns="http://www.w3.org/2000/svg" width="169" height="169" viewBox="0 0 169 169"><g transform="translate(-1281 -440)"><circle cx="84.5" cy="84.5" r="84.5" transform="translate(1281 440)" fill="#d1268c"/><g transform="translate(1314.8 471.449)"><path d="M39.434,256H10.818A10.815,10.815,0,0,0,0,266.817v28.617a10.815,10.815,0,0,0,10.815,10.815H39.434a10.815,10.815,0,0,0,10.815-10.815V266.817A10.815,10.815,0,0,0,39.434,256Z" transform="translate(-0.003 -205.755)" fill="#fff"/><path d="M18.722,306.243h-7.9A10.816,10.816,0,0,1,0,295.428V266.813A10.816,10.816,0,0,1,10.818,256h7.9A10.816,10.816,0,0,0,7.906,266.813v28.615A10.816,10.816,0,0,0,18.722,306.243Z" transform="translate(-0.002 -205.751)" fill="#fff"/><path d="M295.431,256H266.815A10.815,10.815,0,0,0,256,266.817v28.617a10.815,10.815,0,0,0,10.815,10.815h28.617a10.815,10.815,0,0,0,10.815-10.815V266.817A10.815,10.815,0,0,0,295.431,256Z" transform="translate(-205.754 -205.755)" fill="#fff"/><path d="M274.719,306.243h-7.9A10.816,10.816,0,0,1,256,295.428V266.813A10.816,10.816,0,0,1,266.816,256h7.9A10.816,10.816,0,0,0,263.9,266.813v28.615A10.816,10.816,0,0,0,274.719,306.243Z" transform="translate(-205.754 -205.751)" fill="#fff"/><path d="M141.038,0H112.422A10.815,10.815,0,0,0,101.607,10.82V39.436a10.815,10.815,0,0,0,10.815,10.815h28.617a10.815,10.815,0,0,0,10.815-10.815V10.82A10.815,10.815,0,0,0,141.038.005Z" transform="translate(-81.664 -0.004)" fill="#fff"/><path d="M120.326,50.246h-7.9a10.816,10.816,0,0,1-10.816-10.816V10.816A10.816,10.816,0,0,1,112.422,0h7.9A10.816,10.816,0,0,0,109.51,10.816V39.431a10.816,10.816,0,0,0,10.816,10.816Z" transform="translate(-81.664 0)" fill="#fff"/><g transform="translate(12.959 7.014)"><path d="M182.249,69.873l-9.414-17.144V69.575c0,1.586-1.932,2.378-3.865,2.378s-3.865-.793-3.865-2.378V38.111c0-1.635,1.932-2.378,3.865-2.378,2.775,0,3.815.248,5.7,3.865L182.7,54.909V38.062c0-1.635,1.932-2.329,3.865-2.329s3.865.694,3.865,2.329V69.575c0,1.586-1.932,2.378-3.865,2.378C184.776,71.954,183.191,71.607,182.249,69.873Z" transform="translate(-145.658 -35.733)" fill="#d1268c"/><path d="M78.214,297.713c-2.824,0-4.46,1.586-4.46,4.955V315.8c0,3.369,1.635,4.955,4.41,4.955s4.459-1.586,4.459-4.955v-1.685H79.7c-1.486,0-2.329-1.437-2.329-2.973,0-1.437.842-2.973,2.329-2.973h8.324a2.288,2.288,0,0,1,2.329,2.428v5.2c0,8.523-5.351,11.694-12.189,11.694s-12.14-3.171-12.14-11.694V302.668c0-8.523,5.4-11.694,11.892-11.694,7.086,0,12.437,3.567,12.437,9.86,0,2.973-1.239,3.667-3.865,3.667-2.081,0-3.815-.545-3.865-2.329s-.2-4.459-4.41-4.459Z" transform="translate(-66.024 -240.876)" fill="#d1268c"/><path d="M322.022,315.8V302.668c0-8.523,5.3-11.694,12.14-11.694s12.189,3.171,12.189,11.694V315.8c0,8.523-5.351,11.694-12.189,11.694S322.022,324.321,322.022,315.8Zm16.6-13.131c0-3.419-1.685-4.955-4.459-4.955s-4.41,1.536-4.41,4.955V315.8c0,3.419,1.635,4.955,4.41,4.955s4.459-1.536,4.459-4.955Z" transform="translate(-271.776 -240.876)" fill="#d1268c"/></g></g></g></svg>