<svg xmlns="http://www.w3.org/2000/svg" width="45.265" height="45.036" viewBox="0 0 45.265 45.036"><path d="M43.486,34.476c-4.069-3.519-7.834-8.483-7.834-20.878a13.019,13.019,0,0,0-26.039,0C9.613,26,5.849,30.964,1.777,34.479A5.155,5.155,0,0,0,0,38.365a1.481,1.481,0,0,0,1.481,1.481H15.535a7.25,7.25,0,0,0,14.195,0H43.784a1.481,1.481,0,0,0,1.481-1.481A5.126,5.126,0,0,0,43.486,34.476ZM22.632,42.654a4.3,4.3,0,0,1-4.024-2.808h8.049A4.3,4.3,0,0,1,22.632,42.654ZM3.545,36.884a2.181,2.181,0,0,1,.172-.167c6.209-5.36,8.858-12.274,8.858-23.119a10.057,10.057,0,0,1,20.115,0c0,10.835,2.649,17.749,8.861,23.121a2.2,2.2,0,0,1,.172.165Z" transform="translate(0 -0.58)" fill="#001988"/></svg>