<svg xmlns="http://www.w3.org/2000/svg" width="40.086" height="35.203" viewBox="0 0 40.086 35.203"><g transform="translate(-0.656 0.999)"><path d="M5.657,23.044a4,4,0,0,1-2.829-6.828L17.871,1.172A4,4,0,0,1,20.7,0h0a4,4,0,0,1,2.828,1.172L38.57,16.216a4,4,0,0,1-5.656,5.656L20.7,9.658,8.485,21.872A3.982,3.982,0,0,1,5.657,23.044Z" fill="none" stroke="#707070" stroke-width="2"/><path d="M21,33.2a4,4,0,0,1-4-4V21a4,4,0,0,1,8,0V29.2A4,4,0,0,1,21,33.2Z" fill="none" stroke="#707070" stroke-width="2"/></g></svg>