<svg xmlns="http://www.w3.org/2000/svg" width="169" height="169" viewBox="0 0 169 169"><g transform="translate(-1356 -440)"><circle cx="84.5" cy="84.5" r="84.5" transform="translate(1356 440)" fill="#d1268c"/><g transform="translate(1393.801 474.333)"><ellipse cx="9.585" cy="9.584" rx="9.585" ry="9.584" transform="translate(36.614 0.007)" fill="#fff"/><path d="M105.714,1.684a5.751,5.751,0,0,0-8.133,0L73.927,25.336a3.835,3.835,0,0,1-2.711,1.123H51.183a3.835,3.835,0,0,1-2.711-1.123L24.817,1.684a5.751,5.751,0,1,0-8.133,8.132l27.262,27.26v55.2a5.829,5.829,0,0,0,5.589,5.868A5.751,5.751,0,0,0,55.448,92.4V66.713h11.5V92.279a5.829,5.829,0,0,0,5.589,5.868A5.751,5.751,0,0,0,78.452,92.4V37.077l27.262-27.26a5.75,5.75,0,0,0,0-8.133Z" transform="translate(-15 0)" fill="#fff"/></g></g></svg>