<svg xmlns="http://www.w3.org/2000/svg" xmlns:xlink="http://www.w3.org/1999/xlink" width="1215" height="1082" viewBox="0 0 1215 1082"><defs><style>.cls-1,.cls-19,.cls-21{fill:none}.cls-2{clip-path:url(#clip-LoginMega)}.cls-3{fill:#f42191}.cls-4{fill:#fff}.cls-5{fill:#65aefb}.cls-6{fill:#202f5a}.cls-7{fill:#314482}.cls-8{fill:#e2acac}.cls-9{opacity:.4}.cls-10{fill:#ecb6b6}.cls-11{fill:#edbebe}.cls-12{opacity:.5}.cls-13{clip-path:url(#clip-path)}.cls-14{fill:#6963fa}.cls-15{fill:#edece8}.cls-16{fill:#b9134e}.cls-17{fill:#d1268c}.cls-18{fill:#2d3e76}.cls-19{stroke:#d1268c;stroke-linecap:round;stroke-linejoin:round;stroke-width:2px;stroke-dasharray:4 4}.cls-20{fill:#3b66e5}.cls-21{stroke:#2d3e76;stroke-miterlimit:10;stroke-width:1.3px}</style><clipPath id="clip-path"><path id="Path_262" d="M434.113,366.945a274.571,274.571,0,0,0,24.62,31.035c-4.424,6.028-8.013,12.639-8.862,19.025-2.082,15.7,7.355,22.086,7.355,22.086v16.687H432.165V427.443l-14.681-60.025Z" class="cls-1" data-name="Path 262" transform="translate(-417.484 -366.945)"/></clipPath><clipPath id="clip-LoginMega"><rect width="1215" height="1082"/></clipPath></defs><g id="LoginMega" class="cls-2"><g id="Group_207" data-name="Group 207" transform="translate(-660)"><path id="Path_328" d="M1297.771,119.169c-19.036-23.624-43.558-41.543-71.08-54.063-70.731-29.317-148.928-25.549-223.965-23.368-85.04,2.47-169.925,8.411-254.739,14.869-81.293,6.189-160.8,10.571-235.766,45.581-32.736,15.289-63.854,33.674-95.073,51.786-30.047,17.436-61.581,32.75-89.931,52.937C244.639,265.7,178.781,366.134,195.124,471.294c7.226,46.5,30.946,86.254,66.236,116.979,46.759,40.7,109.05,68.73,142.849,122.646,67.378,107.475-74.21,237.818,9,341.668,35.744,44.61,97.014,57.907,151.423,59.466,76.436,2.193,152.646-12.881,220.7,31.4,27.526,17.915,51.9,40.236,79.7,57.773,30,18.927,62.211,27.851,97.358,31.292,39.794,3.9,79.995,5.222,119.952,6.18q30.91.744,61.837.664c16.5-.046,24.005.038,32.576-15.1,15.006-26.494,7.848,8.453-5.869-16.953-18.451-34.182,28.358-99.782-19.955-210.068-33.9-77.4-132.337-112.387-65.816-236.676,27.274-50.967,96.627-77.024,72.395-200.51-7.5-38.237-30.454-83.624-13.095-122.1,14.939-33.111,54.216-53.643,81.9-74.944,26.505-20.389,52.288-42.333,71.643-69.865C1335.976,239.068,1340.387,172.047,1297.771,119.169Z" class="cls-3" data-name="Path 328" transform="translate(494.462 -396.357)"/><path id="Path_312" d="M1258.918,116.392c-18.367-22.793-42.027-40.081-68.581-52.16-68.245-28.285-143.692-24.649-216.091-22.545C892.195,44.07,810.294,49.8,728.463,56.032,650.028,62,573.319,66.23,500.985,100.008c-31.585,14.751-61.609,32.489-91.73,49.963-28.991,16.822-59.416,31.6-86.769,51.074C242.81,257.77,179.268,354.664,195.036,456.123c6.972,44.86,29.858,83.218,63.907,112.861C304.058,608.25,364.16,635.3,396.77,687.314c65.01,103.692-71.6,229.448,8.683,329.642,34.487,43.04,93.6,55.869,146.1,57.373,73.749,2.116,147.279-12.428,212.942,30.3,26.558,17.284,50.077,38.82,76.9,55.74,28.942,18.261,60.024,26.871,93.935,30.19,38.395,3.762,77.183,5.038,115.735,5.963q29.823.717,59.663.641c15.922-.045,23.161.036,31.431-14.572,14.479-25.561,7.572,8.156-5.663-16.356-17.8-32.979,27.361-96.27-19.254-202.674-32.712-74.673-127.685-108.431-63.5-228.345,26.315-49.173,93.23-74.312,69.85-193.453-7.239-36.891-29.384-80.681-12.635-117.8,14.414-31.946,52.31-51.755,79.019-72.306,25.573-19.672,50.45-40.843,69.124-67.405C1295.78,232.071,1300.037,167.409,1258.918,116.392Z" class="cls-4" data-name="Path 312" transform="translate(513.381 -373.761)"/><g id="Group_188" data-name="Group 188" transform="translate(717.919 -55.421)"><g id="Group_77" data-name="Group 77" transform="translate(979.021 634.08)"><g id="Group_66" data-name="Group 66" transform="translate(29.664 30.221)"><path id="Path_243" d="M495.54,293.4a26.639,26.639,0,1,0-45.676,18.581,25.172,25.172,0,0,1,7.593,17.511v.849h22.907v-.04a25.411,25.411,0,0,1,7.337-18.06A26.485,26.485,0,0,0,495.54,293.4Z" class="cls-5" data-name="Path 243" transform="translate(-442.281 -266.772)"/></g><path id="Path_244" d="M472.759,282.878H447.829a2.252,2.252,0,0,0-2.252,2.252v14.4a2.252,2.252,0,0,0,2.252,2.252H451.8a3.24,3.24,0,0,0,3.224,3.094h10.536a3.237,3.237,0,0,0,3.22-3.094h3.976a2.252,2.252,0,0,0,2.252-2.252v-14.4A2.252,2.252,0,0,0,472.759,282.878Z" class="cls-6" data-name="Path 244" transform="translate(-404 -194.446)"/><g id="Group_70" data-name="Group 70" transform="translate(44.147 91.696)"><g id="Group_67" data-name="Group 67"><path id="Path_245" d="M469,286.943H447.867a1.582,1.582,0,0,1-1.579-1.583h0a1.581,1.581,0,0,1,1.579-1.579H469a1.581,1.581,0,0,1,1.579,1.579h0A1.582,1.582,0,0,1,469,286.943Z" class="cls-7" data-name="Path 245" transform="translate(-446.288 -283.781)"/></g><g id="Group_68" data-name="Group 68" transform="translate(0 4.604)"><path id="Path_246" d="M469,288.217H447.867a1.582,1.582,0,0,1-1.579-1.583h0a1.581,1.581,0,0,1,1.579-1.579H469a1.581,1.581,0,0,1,1.579,1.579h0A1.582,1.582,0,0,1,469,288.217Z" class="cls-7" data-name="Path 246" transform="translate(-446.288 -285.055)"/></g><g id="Group_69" data-name="Group 69" transform="translate(0 9.209)"><path id="Path_247" d="M469,289.491H447.867a1.581,1.581,0,0,1-1.579-1.579h0a1.582,1.582,0,0,1,1.579-1.583H469a1.582,1.582,0,0,1,1.579,1.583h0A1.581,1.581,0,0,1,469,289.491Z" class="cls-7" data-name="Path 247" transform="translate(-446.288 -286.329)"/></g></g><g id="Group_76" data-name="Group 76" transform="translate(0 0)"><g id="Group_71" data-name="Group 71" transform="translate(0 40.638)"><path id="Path_248" d="M456.6,281.96l-22.528-6.484,1.54-5.822,21.555,8.922Z" class="cls-5" data-name="Path 248" transform="translate(-434.073 -269.654)"/></g><g id="Group_72" data-name="Group 72" transform="translate(89.286 38.392)"><path id="Path_249" d="M459.623,283.041l21.911-8.335-2.019-5.673-20.738,10.682Z" class="cls-5" data-name="Path 249" transform="translate(-458.777 -269.032)"/></g><g id="Group_73" data-name="Group 73" transform="translate(14.195 12.791)"><path id="Path_250" d="M454.8,282.7,438,266.355l4.1-4.406L456.9,279.986Z" class="cls-5" data-name="Path 250" transform="translate(-438.001 -261.949)"/></g><g id="Group_74" data-name="Group 74" transform="translate(72.709 9.057)"><path id="Path_251" d="M456.757,283.675l13.455-19.2-4.855-3.562L454.191,281.4Z" class="cls-5" data-name="Path 251" transform="translate(-454.191 -260.916)"/></g><g id="Group_75" data-name="Group 75" transform="translate(47.751)"><path id="Path_252" d="M449.075,282.374,447.285,259l5.993-.59-.834,23.314Z" class="cls-5" data-name="Path 252" transform="translate(-447.285 -258.41)"/></g></g></g><g id="Group_129" data-name="Group 129" transform="translate(635.667 555.301)"><g id="Group_109" data-name="Group 109" transform="translate(283.354 378.938)"><g id="Group_79" data-name="Group 79" transform="translate(13.383 5.581)"><g id="Group_78" data-name="Group 78"><path id="Path_253" d="M433.424,477.43h0a24.843,24.843,0,0,0,34.01-8.815L526.515,368.2,483.687,343,424.609,443.421A24.843,24.843,0,0,0,433.424,477.43Z" class="cls-6" data-name="Path 253" transform="translate(-421.175 -343.004)"/></g></g><g id="Group_84" data-name="Group 84" transform="translate(14.54 23.792)"><g id="Group_81" data-name="Group 81"><g id="Group_80" data-name="Group 80"><path id="Path_254" d="M425.363,370.307,461.621,406.1a13.008,13.008,0,0,0,18.393-.119h0a13.009,13.009,0,0,0-.119-18.4l-36.258-35.788a13,13,0,0,0-18.393.119h0A13.008,13.008,0,0,0,425.363,370.307Z" class="cls-8" data-name="Path 254" transform="translate(-421.495 -348.043)"/></g></g><g id="Group_83" class="cls-9" data-name="Group 83" transform="translate(38.117 38.225)"><g id="Group_82" data-name="Group 82"><path id="Path_255" d="M435.149,376.5h0a10.446,10.446,0,0,0,14.771-.1h0a10.445,10.445,0,0,0-.094-14.768h0a10.442,10.442,0,0,0-14.771.094h0A10.442,10.442,0,0,0,435.149,376.5Z" class="cls-8" data-name="Path 255" transform="translate(-432.041 -358.619)"/></g></g></g><g id="Group_89" data-name="Group 89" transform="translate(26.145)"><g id="Group_86" data-name="Group 86"><g id="Group_85" data-name="Group 85"><path id="Path_256" d="M428.574,363.724l38.358,37.866a13.012,13.012,0,0,0,18.4-.119h0a13.008,13.008,0,0,0-.119-18.393l-38.361-37.866a13,13,0,0,0-18.393.119h0A13.008,13.008,0,0,0,428.574,363.724Z" class="cls-8" data-name="Path 256" transform="translate(-424.706 -341.46)"/></g></g><g id="Group_88" data-name="Group 88" transform="translate(35.894 35.976)"><g id="Group_87" data-name="Group 87" transform="translate(0 0)"><rect id="Rectangle_47" width="20.889" height="20.889" class="cls-8" data-name="Rectangle 47" rx=".955" transform="translate(0 14.866) rotate(-45.371)"/></g></g></g><g id="Group_91" data-name="Group 91" transform="translate(1.895 27.737)"><g id="Group_90" data-name="Group 90"><path id="Path_257" d="M418,415.085a12.9,12.9,0,0,0,2.8-2.794l40.06,19.929,43.027-27.453-14.84-20.037-23.485-6.321a14.892,14.892,0,0,1,5.58-29.174l28.48,3.293a16.549,16.549,0,0,1,11.269,6.419l31.639,41.6a16.033,16.033,0,0,1-.13,19.578l-52.218,66.758v15.461H430.826l.26-28.335Z" class="cls-10" data-name="Path 257" transform="translate(-417.996 -349.134)"/></g></g><g id="Group_93" data-name="Group 93" transform="translate(1.197 89.976)"><g id="Group_92" data-name="Group 92"><path id="Path_258" d="M421.916,366.355l11.363,2.132a274.569,274.569,0,0,0,24.62,31.035c-4.424,6.028-8.013,12.639-8.862,19.025-2.082,15.7,7.355,22.086,7.355,22.086v16.687H431.331V428.985L417.8,373.674C419.52,372.589,420.886,368.014,421.916,366.355Z" class="cls-11" data-name="Path 258" transform="translate(-417.803 -366.355)"/></g></g><g id="Group_98" data-name="Group 98" transform="translate(3.497 49.589)"><g id="Group_95" data-name="Group 95"><g id="Group_94" data-name="Group 94"><path id="Path_259" d="M421.395,375.284,459.2,412.6a9.927,9.927,0,0,0,14.041-.09l4.323-4.38a9.928,9.928,0,0,0-.09-14.041L441.859,358.93a13.012,13.012,0,0,0-18.4.119l-2.161,2.19A9.932,9.932,0,0,0,421.395,375.284Z" class="cls-8" data-name="Path 259" transform="translate(-418.439 -355.181)"/></g></g><g id="Group_97" class="cls-9" data-name="Group 97" transform="translate(36.559 35.428)"><g id="Group_96" data-name="Group 96"><path id="Path_260" d="M431.661,382.862h0a10.446,10.446,0,0,0,14.771-.1h0a10.446,10.446,0,0,0-.094-14.771h0a10.446,10.446,0,0,0-14.771.1h0A10.446,10.446,0,0,0,431.661,382.862Z" class="cls-8" data-name="Path 260" transform="translate(-428.555 -364.983)"/></g></g></g><g id="Group_100" class="cls-12" data-name="Group 100" transform="translate(40.778 29.367)"><g id="Group_99" data-name="Group 99" transform="translate(0 0)"><rect id="Rectangle_48" width="24.387" height="24.387" class="cls-4" data-name="Rectangle 48" rx="2.89" transform="matrix(0.127, -0.992, 0.992, 0.127, 0, 24.188)"/></g></g><g id="Group_104" data-name="Group 104" transform="translate(0.045 92.108)"><g id="Group_103" class="cls-13" data-name="Group 103"><g id="Group_102" data-name="Group 102" transform="translate(11.933 17.175)"><g id="Group_101" data-name="Group 101"><path id="Path_261" d="M481.342,371.7l-14.825,25.195a21.029,21.029,0,0,1-28.791,7.463l-6.571-3.867a21.032,21.032,0,0,1-7.463-28.791h57.65Z" class="cls-6" data-name="Path 261" transform="translate(-420.786 -371.697)"/></g></g></g></g><g id="Group_108" data-name="Group 108" transform="translate(0 80.587)"><g id="Group_106" data-name="Group 106"><g id="Group_105" data-name="Group 105"><path id="Path_263" d="M421.34,386.02,447.355,411.7a13,13,0,0,0,18.393-.123h0a13,13,0,0,0-.116-18.393l-26.015-25.679a13.009,13.009,0,0,0-18.4.119h0A13.008,13.008,0,0,0,421.34,386.02Z" class="cls-8" data-name="Path 263" transform="translate(-417.472 -363.757)"/></g></g><g id="Group_107" class="cls-9" data-name="Group 107" transform="translate(27.877 28.114)"><path id="Path_264" d="M428.29,389.415h0a10.446,10.446,0,0,0,14.771-.1h0a10.441,10.441,0,0,0-.094-14.768h0a10.442,10.442,0,0,0-14.771.094h0A10.449,10.449,0,0,0,428.29,389.415Z" class="cls-8" data-name="Path 264" transform="translate(-425.185 -371.536)"/></g></g></g><g id="Group_126" data-name="Group 126"><g id="Group_122" data-name="Group 122" transform="translate(137.31 104.662)"><g id="Group_111" data-name="Group 111" transform="translate(24.061 55.741)"><g id="Group_110" data-name="Group 110"><path id="Path_265" d="M468.51,302.55l-31.583-21.555L383.72,350.343l40.609,30.473Z" class="cls-14" data-name="Path 265" transform="translate(-383.72 -280.994)"/></g></g><g id="Group_113" data-name="Group 113" transform="translate(204.224 180.428)"><g id="Group_112" data-name="Group 112"><path id="Path_266" d="M565.364,374.716l-63.4-59.223L433.569,410.9l79.231,43.56Z" class="cls-14" data-name="Path 266" transform="translate(-433.569 -315.493)"/></g></g><g id="Group_116" data-name="Group 116" transform="translate(11.166 8.045)"><g id="Group_115" data-name="Group 115"><g id="Group_114" data-name="Group 114"><path id="Path_267" d="M641.6,440.18,532.416,267.8,380.153,479.124,573.21,535.586Z" class="cls-15" data-name="Path 267" transform="translate(-380.153 -267.797)"/></g></g></g><g id="Group_119" data-name="Group 119" transform="translate(0)"><g id="Group_118" data-name="Group 118"><g id="Group_117" data-name="Group 117"><rect id="Rectangle_49" width="260.468" height="27.523" class="cls-6" data-name="Rectangle 49" transform="matrix(0.585, -0.811, 0.811, 0.585, 0, 211.328)"/></g></g></g><g id="Group_121" data-name="Group 121" transform="translate(262.101 223.1)"><g id="Group_120" data-name="Group 120" transform="translate(0 0)"><rect id="Rectangle_50" width="36.699" height="107.344" class="cls-6" data-name="Rectangle 50" transform="matrix(-0.811, -0.585, 0.585, -0.811, 29.755, 108.515)"/></g></g></g><g id="Group_123" data-name="Group 123" transform="translate(47.756 60.658)"><path id="Path_268" d="M462.98,336.4l-7.721,10L352.285,278.157,377.119,253.4Z" class="cls-14" data-name="Path 268" transform="translate(-352.285 -253.396)"/></g><g id="Group_124" data-name="Group 124" transform="translate(0 163.099)"><path id="Path_269" d="M463.636,325.495l-3.3,12.2L339.071,314.129l13.448-32.389Z" class="cls-14" data-name="Path 269" transform="translate(-339.071 -281.74)"/></g><g id="Group_125" data-name="Group 125" transform="translate(143.178)"><path id="Path_270" d="M456.6,355.412l-11.093,6.053-66.823-103.9,30.47-20.949Z" class="cls-14" data-name="Path 270" transform="translate(-378.687 -236.613)"/></g></g><g id="Group_127" data-name="Group 127" transform="translate(289.413 549.013)"><rect id="Rectangle_51" width="75.074" height="18.769" class="cls-15" data-name="Rectangle 51"/></g><g id="Group_128" data-name="Group 128" transform="translate(285.212 558.486)"><rect id="Rectangle_52" width="83.476" height="23.595" class="cls-16" data-name="Rectangle 52"/></g></g><g id="Group_130" data-name="Group 130" transform="translate(941.18 170.148)"><circle id="Ellipse_2680" cx="44.114" cy="44.114" r="44.114" class="cls-17" data-name="Ellipse 2680"/><path id="Path_271" d="M481.017,141.907c-8.374-10.871-24.855-4.456-24.855,6.585,0-11.041-16.484-17.46-24.858-6.585-8.656,11.24-.123,30.93,24.858,42.239C481.14,172.837,489.673,153.147,481.017,141.907Z" class="cls-4" data-name="Path 271" transform="translate(-412.047 -113.713)"/></g><g id="Group_134" data-name="Group 134" transform="translate(507.898 526.007)"><g id="Group_132" data-name="Group 132" transform="translate(0 0)"><g id="Group_131" data-name="Group 131"><circle id="Ellipse_2681" cx="57.04" cy="57.04" r="57.04" class="cls-17" data-name="Ellipse 2681" transform="translate(0 80.667) rotate(-45)"/></g></g><g id="Group_133" data-name="Group 133" transform="translate(47.908 45.693)"><path id="Path_272" d="M356.124,244.7a7.525,7.525,0,0,0-12.78,0l-25.238,40.45a7.385,7.385,0,0,0-1.131,3.972,7.529,7.529,0,0,0,7.521,7.521h50.476a7.529,7.529,0,0,0,7.521-7.521,7.387,7.387,0,0,0-1.131-3.972Zm18.848,46.927H324.5a2.512,2.512,0,0,1-2.508-2.508,2.425,2.425,0,0,1,.372-1.319L347.6,247.356a2.509,2.509,0,0,1,4.272,0l25.238,40.45a2.4,2.4,0,0,1,.372,1.316A2.512,2.512,0,0,1,374.972,291.629Z" class="cls-4" data-name="Path 272" transform="translate(-316.975 -241.15)"/><path id="Path_273" d="M325.345,246.006h5.017v17.717h-5.017Z" class="cls-4" data-name="Path 273" transform="translate(-295.094 -228.455)"/></g><path id="Path_274" d="M325.345,252.556h5.017v5.013h-5.017Z" class="cls-4" data-name="Path 274" transform="translate(-247.186 -165.64)"/></g><g id="Group_139" data-name="Group 139" transform="translate(376.337 235.826)"><g id="Group_136" data-name="Group 136"><g id="Group_135" data-name="Group 135"><circle id="Ellipse_2682" cx="41.981" cy="41.981" r="41.981" class="cls-18" data-name="Ellipse 2682"/></g></g><g id="Group_138" data-name="Group 138" transform="translate(25.869 15.956)"><g id="Group_137" data-name="Group 137"><path id="Path_275" d="M293.8,198.479v6.2h-5.537v-6.036c-5.479-.329-10.741-2.049-13.785-4.427l3.043-6.755a22.366,22.366,0,0,0,10.741,3.929v-9.245c-6.144-1.5-13.011-3.546-13.011-11.461,0-5.873,4.265-10.911,13.011-11.905v-6.148H293.8v6.036a25.052,25.052,0,0,1,11.24,3.379l-2.765,6.809a22.71,22.71,0,0,0-8.475-2.881v9.415c6.148,1.438,12.9,3.488,12.9,11.294C306.7,192.443,302.493,197.431,293.8,198.479Zm-5.537-24.472v-7.864c-2.935.665-4.1,2.273-4.1,4.1C284.162,172.179,285.825,173.23,288.261,174.007Zm9.523,13.344c0-1.937-1.6-2.989-3.986-3.82v7.64C296.566,190.564,297.784,189.122,297.784,187.351Z" class="cls-4" data-name="Path 275" transform="translate(-274.476 -152.633)"/></g></g></g><path id="Path_276" d="M289.728,159.018a33.556,33.556,0,0,0-51.329,2.758c-13.033,16.441-11.663,41.954,3.054,56.887l27.229,27.616,24.1-30.374C305.833,199.479,304.463,173.967,289.728,159.018ZM266.337,202.6a18.079,18.079,0,1,1,17.1-19.014A18.1,18.1,0,0,1,266.337,202.6Z" class="cls-5" data-name="Path 276" transform="translate(10.034 88.043)"/><path id="Path_277" d="M467.451,218.079c22.361,7.077,41.516,23.286,55.424,42.413,27.775,38.2,36.637,89.5,23.286,134.8-25.332,85.971-207.545,255.2-150.922,370.853" class="cls-19" data-name="Path 277" transform="translate(415.067 270.237)"/><g id="Group_141" data-name="Group 141" transform="translate(516.084 780.961)"><circle id="Ellipse_2683" cx="30.356" cy="30.356" r="30.356" class="cls-17" data-name="Ellipse 2683" transform="translate(0 42.929) rotate(-45)"/><g id="Group_140" data-name="Group 140" transform="translate(25.699 23.575)"><path id="Path_278" d="M338.892,323.944a4.722,4.722,0,0,0,1.182-3.206,4.191,4.191,0,0,0-4.131-4.138h-5.967c.058-.2.116-.372.173-.517a3.623,3.623,0,0,1,.239-.473c.1-.173.17-.3.213-.387.26-.488.455-.889.593-1.207a8.617,8.617,0,0,0,.408-1.29,6.684,6.684,0,0,0,.206-1.637c0-.347,0-.625-.011-.842a9.179,9.179,0,0,0-.108-.969,5.308,5.308,0,0,0-.26-1.073,4.96,4.96,0,0,0-.517-.972,3,3,0,0,0-.86-.871,4.7,4.7,0,0,0-1.294-.56,6.365,6.365,0,0,0-1.775-.228,1.312,1.312,0,0,0-.969.412,3.628,3.628,0,0,0-.734,1.073,6.442,6.442,0,0,0-.419,1.12c-.08.318-.17.755-.271,1.316-.13.6-.224,1.037-.289,1.3a6.744,6.744,0,0,1-.38,1.045,3.174,3.174,0,0,1-.669,1.034,32.239,32.239,0,0,0-2.172,2.584q-1.057,1.377-2.176,2.606c-.748.82-1.29,1.243-1.637,1.272a1.418,1.418,0,0,0-.925.441,1.3,1.3,0,0,0-.387.936v13.806a1.279,1.279,0,0,0,.408.958,1.414,1.414,0,0,0,.969.419,15.768,15.768,0,0,1,3.4.951c1.106.372,1.973.658,2.595.849s1.5.4,2.617.625a16.152,16.152,0,0,0,3.1.333h2.779a5.347,5.347,0,0,0,4.243-1.681,5.18,5.18,0,0,0,1.055-3.9,4.175,4.175,0,0,0,1.16-2.024,4.393,4.393,0,0,0,0-2.519,4.476,4.476,0,0,0,.929-2.953,5.162,5.162,0,0,0-.322-1.637Zm0,0" class="cls-4" data-name="Path 278" transform="translate(-305.616 -305.573)"/><path id="Path_279" d="M320.678,309.387h-6.2a1.4,1.4,0,0,0-1.381,1.381v13.781a1.407,1.407,0,0,0,1.381,1.381h6.2a1.4,1.4,0,0,0,1.377-1.381V310.768a1.395,1.395,0,0,0-1.377-1.381ZM318.2,322.77a1.372,1.372,0,0,1-2.346-.979,1.352,1.352,0,0,1,.4-.969,1.386,1.386,0,0,1,2.36.969,1.3,1.3,0,0,1-.412.979Zm0,0" class="cls-4" data-name="Path 279" transform="translate(-313.095 -295.602)"/></g></g><g id="Group_167" data-name="Group 167" transform="translate(356.924 348.682)"><g id="Group_146" data-name="Group 146"><g id="Group_143" data-name="Group 143" transform="translate(10.676)"><g id="Group_142" data-name="Group 142"><path id="Path_280" d="M280.044,209.738A15.147,15.147,0,1,0,264.9,194.591a15.154,15.154,0,0,0,15.143,15.147" class="cls-20" data-name="Path 280" transform="translate(-264.901 -179.444)"/></g></g><g id="Group_145" data-name="Group 145" transform="translate(0 31.331)"><g id="Group_144" data-name="Group 144"><path id="Path_281" d="M294.189,188.113H281.337a19.411,19.411,0,0,0-19.39,19.39v15.725l.033.246,1.091.336a88.14,88.14,0,0,0,26.369,4.247c14.254,0,22.516-4.055,23.03-4.319l1.008-.51h.108V207.5a19.415,19.415,0,0,0-19.4-19.39" class="cls-20" data-name="Path 281" transform="translate(-261.947 -188.113)"/></g></g></g><g id="Group_151" data-name="Group 151" transform="translate(87.688)"><g id="Group_148" data-name="Group 148" transform="translate(10.673)"><g id="Group_147" data-name="Group 147"><path id="Path_282" d="M304.305,209.738a15.147,15.147,0,1,0-15.144-15.147,15.157,15.157,0,0,0,15.144,15.147" class="cls-20" data-name="Path 282" transform="translate(-289.162 -179.444)"/></g></g><g id="Group_150" data-name="Group 150" transform="translate(0 31.331)"><g id="Group_149" data-name="Group 149"><path id="Path_283" d="M318.451,188.113H305.6a19.411,19.411,0,0,0-19.39,19.39v15.725l.032.246,1.088.336a88.161,88.161,0,0,0,26.373,4.247c14.251,0,22.516-4.055,23.026-4.319l1.008-.51h.112V207.5a19.415,19.415,0,0,0-19.4-19.39" class="cls-20" data-name="Path 283" transform="translate(-286.209 -188.113)"/></g></g></g><g id="Group_156" data-name="Group 156" transform="translate(185.896)"><g id="Group_153" data-name="Group 153" transform="translate(10.676)"><g id="Group_152" data-name="Group 152"><path id="Path_284" d="M331.476,209.738a15.147,15.147,0,1,0-15.14-15.147,15.157,15.157,0,0,0,15.14,15.147" class="cls-20" data-name="Path 284" transform="translate(-316.336 -179.444)"/></g></g><g id="Group_155" data-name="Group 155" transform="translate(0 31.331)"><g id="Group_154" data-name="Group 154"><path id="Path_285" d="M345.624,188.113H332.772a19.411,19.411,0,0,0-19.39,19.39v15.725l.033.246,1.088.336a88.18,88.18,0,0,0,26.373,4.247c14.254,0,22.516-4.055,23.026-4.319l1.012-.51h.108V207.5a19.415,19.415,0,0,0-19.4-19.39" class="cls-20" data-name="Path 285" transform="translate(-313.382 -188.113)"/></g></g></g><g id="Group_161" data-name="Group 161" transform="translate(46.768 72.49)"><g id="Group_158" data-name="Group 158" transform="translate(10.673)"><g id="Group_157" data-name="Group 157"><path id="Path_286" d="M292.983,229.8a15.147,15.147,0,1,0-15.143-15.151A15.158,15.158,0,0,0,292.983,229.8" class="cls-20" data-name="Path 286" transform="translate(-277.84 -199.501)"/></g></g><g id="Group_160" data-name="Group 160" transform="translate(0 31.328)"><g id="Group_159" data-name="Group 159"><path id="Path_287" d="M307.129,208.169H294.277a19.411,19.411,0,0,0-19.39,19.39v15.725l.033.246,1.088.34a88.143,88.143,0,0,0,26.373,4.243c14.251,0,22.516-4.051,23.026-4.319l1.008-.51h.112V227.559a19.417,19.417,0,0,0-19.4-19.39" class="cls-20" data-name="Path 287" transform="translate(-274.887 -208.169)"/></g></g></g><g id="Group_166" data-name="Group 166" transform="translate(139.132 72.49)"><g id="Group_163" data-name="Group 163" transform="translate(10.673)"><g id="Group_162" data-name="Group 162"><path id="Path_288" d="M318.54,229.8A15.147,15.147,0,1,0,303.4,214.644,15.158,15.158,0,0,0,318.54,229.8" class="cls-20" data-name="Path 288" transform="translate(-303.396 -199.501)"/></g></g><g id="Group_165" data-name="Group 165" transform="translate(0 31.328)"><g id="Group_164" data-name="Group 164"><path id="Path_289" d="M332.682,208.169H319.83a19.41,19.41,0,0,0-19.387,19.39v15.725l.033.246,1.088.34a88.139,88.139,0,0,0,26.369,4.243c14.254,0,22.52-4.051,23.03-4.319l1.008-.51h.108V227.559a19.415,19.415,0,0,0-19.4-19.39" class="cls-20" data-name="Path 289" transform="translate(-300.443 -208.169)"/></g></g></g></g><g id="Group_176" data-name="Group 176" transform="translate(514.229 195.725)"><g id="Group_169" data-name="Group 169"><g id="Group_168" data-name="Group 168"><path id="Path_290" d="M329.389,137.123a23.814,23.814,0,0,0-23.915,24.121v72.161A24.125,24.125,0,0,0,329.6,257.53h64.192l17.41,22.657,17.413-22.657h7.76A24.13,24.13,0,0,0,460.5,233.405V161.244a24.127,24.127,0,0,0-24.128-24.121Zm0,0" class="cls-20" data-name="Path 290" transform="translate(-305.471 -137.123)"/></g></g><g id="Group_171" data-name="Group 171" transform="translate(102.166 49.504)"><g id="Group_170" data-name="Group 170"><path id="Path_291" d="M333.739,165.085A14.265,14.265,0,1,1,348,179.35a14.265,14.265,0,0,1-14.265-14.265Zm0,0" class="cls-5" data-name="Path 291" transform="translate(-333.739 -150.82)"/></g></g><g id="Group_173" data-name="Group 173" transform="translate(63.143 49.504)"><g id="Group_172" data-name="Group 172"><path id="Path_292" d="M322.942,165.085a14.265,14.265,0,1,1,14.265,14.265,14.265,14.265,0,0,1-14.265-14.265Zm0,0" class="cls-5" data-name="Path 292" transform="translate(-322.942 -150.82)"/></g></g><g id="Group_175" data-name="Group 175" transform="translate(24.128 49.504)"><g id="Group_174" data-name="Group 174"><path id="Path_293" d="M312.147,165.085a14.265,14.265,0,1,1,14.265,14.265,14.265,14.265,0,0,1-14.265-14.265Zm0,0" class="cls-5" data-name="Path 293" transform="translate(-312.147 -150.82)"/></g></g></g><g id="Group_179" data-name="Group 179" transform="translate(805.63 289.615)"><g id="Group_177" data-name="Group 177"><path id="Path_294" d="M461.955,176.065h-2.707a5.127,5.127,0,0,1-5.129-5.129V168.23a5.127,5.127,0,0,0-5.128-5.129h0a5.127,5.127,0,0,0-5.129,5.129v2.707a5.13,5.13,0,0,1-5.132,5.129h-2.707a5.13,5.13,0,0,0-5.129,5.132h0a5.129,5.129,0,0,0,5.129,5.129h2.707a5.13,5.13,0,0,1,5.132,5.129v2.7a5.127,5.127,0,0,0,5.129,5.129h0a5.127,5.127,0,0,0,5.128-5.129v-2.7a5.127,5.127,0,0,1,5.129-5.129h2.707a5.133,5.133,0,0,0,5.132-5.129h0A5.133,5.133,0,0,0,461.955,176.065Z" class="cls-5" data-name="Path 294" transform="translate(-268.99 -163.101)"/><path id="Path_295" d="M458.758,182.782h-1.814a3.434,3.434,0,0,1-3.433-3.433v-1.814a3.437,3.437,0,0,0-3.433-3.437h0a3.438,3.438,0,0,0-3.437,3.437v1.814a3.434,3.434,0,0,1-3.433,3.433h-1.814a3.432,3.432,0,0,0-3.433,3.433h0a3.432,3.432,0,0,0,3.433,3.433h1.814a3.435,3.435,0,0,1,3.433,3.437V194.9a3.435,3.435,0,0,0,3.437,3.433h0a3.434,3.434,0,0,0,3.433-3.433v-1.811a3.435,3.435,0,0,1,3.433-3.437h1.814a3.432,3.432,0,0,0,3.433-3.433h0A3.432,3.432,0,0,0,458.758,182.782Z" class="cls-5" data-name="Path 295" transform="translate(-250.526 -134.355)"/><path id="Path_296" d="M639.088,249.376a35.129,35.129,0,0,0-10.676-14.724c-26.637-21.233-60.227-9.65-60.227-9.65s3.09-53.281-50.573-55.6a43.51,43.51,0,0,0-34.2,13.553,40.9,40.9,0,0,0-67.332,31.234,41.407,41.407,0,0,0,.246,4.413c-14.8,4.279-27.844,15.555-30.052,41.35-2.237,26.167,17.865,48.824,44.126,48.824H597.38C628.108,308.779,650.505,277.907,639.088,249.376Z" class="cls-5" data-name="Path 296" transform="translate(-386.098 -146.748)"/></g><g id="Group_178" data-name="Group 178" transform="translate(98.643 62.002)"><path id="Path_297" d="M442.886,198.4l-14.747-18.147L413.391,198.4h6.741v50.562h16.013V198.4Z" class="cls-20" data-name="Path 297" transform="translate(-413.391 -180.256)"/><path id="Path_298" d="M444.1,230.817V180.256H428.083v50.561h-6.741l14.747,18.148,14.748-18.148Z" class="cls-20" data-name="Path 298" transform="translate(-392.606 -180.256)"/></g></g><g id="Group_180" data-name="Group 180" transform="translate(225.616 414.143)"><circle id="Ellipse_2684" cx="55.577" cy="55.577" r="55.577" class="cls-17" data-name="Ellipse 2684" transform="translate(0 78.597) rotate(-45)"/></g><path id="Path_299" d="M375.268,243.14h0a6.111,6.111,0,0,0,8.591-.99l19.986-25.2a42.822,42.822,0,0,0,26.716,3.311,43.287,43.287,0,1,0-36.97-10.066l-19.314,24.352A6.114,6.114,0,0,0,375.268,243.14Zm46.891-32.578A32.66,32.66,0,1,1,454.82,177.9,32.695,32.695,0,0,1,422.158,210.561Z" class="cls-18" data-name="Path 299" transform="translate(385.167 52.323)"/><g id="Group_182" data-name="Group 182" transform="translate(277.213 576.647)"><rect id="Rectangle_53" width="33.002" height="104.507" class="cls-20" data-name="Rectangle 53" transform="translate(40.272 208.041)"/><rect id="Rectangle_54" width="33.002" height="203.513" class="cls-5" data-name="Rectangle 54" transform="translate(88.744 109.035)"/><rect id="Rectangle_55" width="33.002" height="140.568" class="cls-20" data-name="Rectangle 55" transform="translate(137.215 171.98)"/><rect id="Rectangle_56" width="33.002" height="233.765" class="cls-5" data-name="Rectangle 56" transform="translate(185.688 78.783)"/><g id="Group_181" data-name="Group 181"><path id="Path_300" d="M242.675,389.121l103.591-93.533,23.132,28.16L446.839,245.3" class="cls-21" data-name="Path 300" transform="translate(-232.617 -235.245)"/><path id="Path_301" d="M260.009,292.37a10.058,10.058,0,1,1-10.058-10.058A10.058,10.058,0,0,1,260.009,292.37Z" class="cls-17" data-name="Path 301" transform="translate(-239.892 -138.492)"/><path id="Path_302" d="M316.773,252.574a10.057,10.057,0,1,1-10.055-10.055A10.055,10.055,0,0,1,316.773,252.574Z" class="cls-17" data-name="Path 302" transform="translate(-91.489 -242.519)"/></g></g><g id="Group_187" data-name="Group 187" transform="translate(700.789 114.706)"><g id="Group_185" data-name="Group 185"><g id="Group_184" data-name="Group 184"><g id="Group_183" data-name="Group 183"><path id="Path_303" d="M408.524,140.421a25.717,25.717,0,1,1-25.715-25.715A25.716,25.716,0,0,1,408.524,140.421Z" class="cls-18" data-name="Path 303" transform="translate(-357.09 -114.706)"/></g></g></g><g id="Group_186" data-name="Group 186" transform="translate(14.099 13.756)"><path id="Path_304" d="M378.625,133.24h4.442v3.726H378.18l-.683,5.465h-3.86l.68-5.465H369.3l-.687,5.465h-3.824l.683-5.465h-4.478V133.24h4.923l.716-5.537h-4.474V123.98h4.919l.683-5.468h3.827l-.683,5.468h5.024l.683-5.468h3.827l-.683,5.468h4.442l.033,3.723h-4.919Zm-3.864,0,.719-5.537h-5.024l-.716,5.537Z" class="cls-4" data-name="Path 304" transform="translate(-360.991 -118.512)"/></g></g><path id="Path_305" d="M246.352,208.633h2.411v7.232h-2.411Z" class="cls-4" data-name="Path 305" transform="translate(54.209 245.544)"/><path id="Path_306" d="M239.612,212.936l1.706-1.706,5.11,5.114-1.7,1.7Z" class="cls-4" data-name="Path 306" transform="translate(36.589 252.333)"/><path id="Path_307" d="M237.016,217.97h7.228v2.411h-7.228Z" class="cls-4" data-name="Path 307" transform="translate(29.803 269.952)"/><path id="Path_308" d="M254.355,217.97h7.232v2.411h-7.232Z" class="cls-4" data-name="Path 308" transform="translate(75.13 269.952)"/><path id="Path_309" d="M251.873,216.344l5.11-5.114,1.706,1.706-5.114,5.11Z" class="cls-4" data-name="Path 309" transform="translate(68.642 252.333)"/><path id="Path_310" d="M281.607,255.668a25.306,25.306,0,1,0-33.374-.123,11.12,11.12,0,0,1,1.5,1.644,3.595,3.595,0,0,0-1.883,5.934,3.577,3.577,0,0,0-.94,2.407,3.621,3.621,0,0,0,3.614,3.618h2.653a13.255,13.255,0,0,0,23.615,0h2.656a3.619,3.619,0,0,0,3.614-3.618,3.576,3.576,0,0,0-.94-2.407,3.575,3.575,0,0,0,.94-2.411,3.62,3.62,0,0,0-2.855-3.535A9.857,9.857,0,0,1,281.607,255.668ZM242.1,236.108a22.963,22.963,0,0,1,21.653-22.365,22.883,22.883,0,0,1,16.275,40.11,12.04,12.04,0,0,0-2.613,3.242h-24.88a12.941,12.941,0,0,0-2.7-3.354A22.839,22.839,0,0,1,242.1,236.108Zm22.892,37.862a10.81,10.81,0,0,1-9-4.821h17.995A10.841,10.841,0,0,1,264.992,273.97Zm14.46-7.232H250.528a1.205,1.205,0,0,1,0-2.411h28.924a1.205,1.205,0,1,1,0,2.411Zm1.207-6.025a1.206,1.206,0,0,1-1.207,1.2H250.528a1.205,1.205,0,0,1,0-2.411h28.924A1.209,1.209,0,0,1,280.66,260.713Z" class="cls-4" data-name="Path 310" transform="translate(36.776 252.519)"/><path id="Path_311" d="M246.17,232.711a3.622,3.622,0,0,0,3.618,3.618H253.4v-2.281a1.308,1.308,0,0,1,.994-1.319,1.206,1.206,0,0,1,1.417,1.189v2.411H276.3a3.621,3.621,0,0,0,3.614-3.618V229.1H276.3a1.206,1.206,0,0,1-1.189-1.417,1.306,1.306,0,0,1,1.315-.994h3.488v-3.614a3.621,3.621,0,0,0-3.614-3.618h-2.411V218.38a3.715,3.715,0,0,0-3.018-3.7,3.621,3.621,0,0,0-4.214,3.567v1.2H255.813v2.284a1.306,1.306,0,0,1-.994,1.316,1.206,1.206,0,0,1-1.417-1.189v-2.411h-3.614a3.622,3.622,0,0,0-3.618,3.618v1.2h-1.077a3.714,3.714,0,0,0-3.694,3.018,3.621,3.621,0,0,0,3.567,4.214h1.2Zm16.875-10.846h6.025V218.25a1.211,1.211,0,0,1,.426-.922,1.2,1.2,0,0,1,.99-.267,1.308,1.308,0,0,1,.994,1.319v3.484H276.3a1.209,1.209,0,0,1,1.2,1.207v1.2h-1.077a3.714,3.714,0,0,0-3.694,3.018,3.621,3.621,0,0,0,3.567,4.214h1.2v1.2a1.208,1.208,0,0,1-1.2,1.207H263.045v-2.411h1.2a3.621,3.621,0,0,0,3.567-4.214,3.718,3.718,0,0,0-3.7-3.018h-1.073ZM244.966,229.1a1.211,1.211,0,0,1-1.189-1.417,1.306,1.306,0,0,1,1.316-.994h3.488v-3.614a1.209,1.209,0,0,1,1.207-1.207h1.2a3.616,3.616,0,0,0,4.214,3.567,3.707,3.707,0,0,0,3.014-3.567h2.414v4.821h3.484a1.311,1.311,0,0,1,1.319.994,1.211,1.211,0,0,1-1.189,1.417h-3.614v4.821h-2.411a3.621,3.621,0,0,0-4.214-3.567,3.707,3.707,0,0,0-3.014,3.567h-1.207a1.209,1.209,0,0,1-1.207-1.207V229.1Z" class="cls-4" data-name="Path 311" transform="translate(41.134 261.236)"/></g></g></g></svg>