<svg xmlns="http://www.w3.org/2000/svg" width="638.645" height="707.734" viewBox="0 0 638.645 707.734"><path d="M434.416,483.431C782.639,716.425,669.466,803.244,217.208,724.17,99.04,703.51,0,616.388,0,483.431S97.247,242.692,217.208,242.692,323.914,409.495,434.416,483.431Z" transform="translate(0 -44.977)" fill="#fff"/><ellipse cx="137.565" cy="12.308" rx="137.565" ry="12.308" transform="translate(327.984 640.82)" opacity="0.1"/><ellipse cx="72.913" cy="12.308" rx="72.913" ry="12.308" transform="translate(121.327 235.113)" opacity="0.1"/><path d="M199.705,340.9a165.816,165.816,0,0,0-149.6,94.225A165.836,165.836,0,0,1,322.515,618.1,165.807,165.807,0,0,0,199.705,340.9Z" transform="translate(-9.286 -63.178)" fill="#f42191" opacity="0.1"/><path d="M335.032,554.693a165.087,165.087,0,0,1-16.2,71.577A165.836,165.836,0,0,1,46.421,443.294a165.807,165.807,0,0,1,288.612,111.4Z" transform="translate(-5.6 -72.072)" fill="#001988" opacity="0.3"/><path d="M195.834,672.244c-91.873,0-166.617-74.744-166.617-166.616A166.5,166.5,0,0,1,195.834,339.01c91.873,0,166.617,74.745,166.617,166.618A166.6,166.6,0,0,1,195.856,672.244Zm0-331.6A165.945,165.945,0,0,0,46.97,434.4a163.417,163.417,0,0,0-16.124,71.225c0,90.974,74.013,164.987,164.988,164.987A164.975,164.975,0,0,0,360.821,505.651v-.023c0-90.975-74.013-164.988-164.988-164.988Z" transform="translate(-5.415 -62.828)" fill="#fff"/><path d="M696.919,746.085c-12.042,15.748-10.666,37.033-10.666,37.033s20.9-4.25,32.944-20,10.665-37.033,10.665-37.033S708.961,730.336,696.919,746.085Z" transform="translate(-127.173 -134.563)" fill="#d0cde1"/><path d="M702.638,746.491c-2.336,19.687-18.156,33.994-18.156,33.994s-12.029-17.612-9.693-37.3,18.156-33.994,18.156-33.994S704.976,726.8,702.638,746.491Z" transform="translate(-125.001 -131.433)" fill="#001988"/><circle cx="68.416" cy="68.416" r="68.416" transform="translate(72.383 17.052)" fill="#d1268c"/><path d="M313.618,155.222c.033,68.338-40.581,92.216-90.692,92.24q-1.746,0-3.475-.037-3.484-.073-6.895-.314c-45.228-3.18-80.381-28.246-80.412-91.8C132.112,89.539,216.132,6.5,222.433.357c.006,0,.006,0,.011-.006.24-.234.362-.351.362-.351S313.585,86.889,313.618,155.222Z" transform="translate(-24.49)" fill="#3b66e5"/><path d="M231.208,237.01l33.164-46.384L231.127,242.1l-.086,5.325q-3.484-.073-6.895-.314l3.542-68.367-.029-.53.061-.1.337-6.46-33.379-51.57,33.477,46.731.084,1.369,2.676-51.654L202.337,63.236l28.925,44.216L234.022.357,234.033,0V.351l-.427,84.455,28.4-33.5L233.488,92.08l-.729,46.251,26.526-44.4-26.628,51.2-.4,25.718,38.5-61.8L232.1,179.821Z" transform="translate(-36.079)" fill="#3f3d56"/><path d="M557.691,235.083c-8.7-14.694-25.9-15.379-25.9-15.379s-16.765-2.143-27.52,20.236c-10.025,20.859-23.859,41-2.227,45.882l3.907-12.161,2.42,13.067a84.731,84.731,0,0,0,9.256.159c23.166-.749,45.228.218,44.518-8.095C561.2,267.74,566.058,249.221,557.691,235.083Z" transform="translate(-90.919 -40.707)" fill="#16b1ff"/><path d="M525.862,407.843l2.237,22.369,51.823-5.592,1.119-16.777Z" transform="translate(-97.457 -75.584)" fill="#ffb8b8"/><path d="M512.349,422.182l-1.492,13.049S493.707,459.091,495.2,500.1s-23.488,223.325-5.593,224.815,49.96,3.729,51.451-1.864,4.474-217.732,4.474-217.732,7.829,218,21.251,218.742,58.534,2.237,58.534-3.355-39.52-255.28-39.52-255.28l-6.338-20.878-6.338-25.725s-39.52,6.711-50.331,4.1S512.349,422.182,512.349,422.182Z" transform="translate(-89.535 -77.62)" fill="#0a66ea"/><circle cx="23.861" cy="23.861" r="23.861" transform="translate(413.334 237.158) rotate(-80.783)" fill="#ffb8b8"/><path d="M576.425,308.868l-4.53,6.592-2.9,4.217-4.873,7.088-24.234,1.864s-5.887-1.9-12.68-4.679c-2.509-1.029-5.145-2.178-7.651-3.4-9.719-4.719-17.519-10.48-8.75-14.294a29,29,0,0,0,4.471-2.4,22.691,22.691,0,0,0,3.582-2.9,19.543,19.543,0,0,0,5.37-17.441l23.488-3.355c-.682,5.958,5.242,12.456,11.882,17.761,2.181,1.748,4.444,3.363,6.573,4.787C571.754,306.445,576.425,308.868,576.425,308.868Z" transform="translate(-93.959 -51.921)" fill="#ffb8b8"/><path d="M541.728,321.338s-22.929-3.914-28.149-12.117c0,0-22.556,2.8-20.692,14.727s20.505,77.176,20.505,77.176,46.6-8.948,63.754-2.237l10.439-83.141s-3.728-8.2-10.812-5.966-9.88.187-9.88.187S558.878,321.338,541.728,321.338Z" transform="translate(-91.325 -57.307)" fill="#da0b4e"/><path d="M575.607,484.727s16.032,17.9,7.084,20.878-19.76-11.931-19.76-11.931Z" transform="translate(-104.326 -89.833)" fill="#ffb8b8"/><path d="M582.787,486.557s-13.049,8.948-8.2,14.913,21.624-5.22,21.624-7.457S582.787,486.557,582.787,486.557Z" transform="translate(-106.286 -90.172)" fill="#ffb8b8"/><path d="M540.282,404.57l-10.812,1.864-7.084-52.569a188.69,188.69,0,0,0-.943-28.581c-.79-6.337-2.11-12.429-4.279-16.7a22.693,22.693,0,0,0,3.582-2.9c2.6,4.112,7.33,12.821,8.348,22.993a37.05,37.05,0,0,1,0,7.661c-1.865,17.523-1.492,20.878-1.492,20.878Z" transform="translate(-95.844 -56.652)" fill="#0a66ea"/><path d="M510.437,312.855s-17.523-4.847-19.014,5.592.373,37.283,4.474,47.35,18.268,42.875,18.268,42.875,25.726,32.809,26.844,40.638,6.711,16.031,6.711,16.031l17.9-11.557L530.57,394.5l-15.286-41.011S521.622,316.211,510.437,312.855Z" transform="translate(-90.98 -57.772)" fill="#da0b4e"/><path d="M596.032,314.941l8.2,1.865s7.457,32.063,4.474,49.213-3.356,23.116-3.356,23.116l-2.609,48.84s.745,31.318-4.474,26.471-15.659-7.084-15.659-7.084,1.119-13.795,5.22-17.15c0,0,4.846-25.725,1.864-36.91S596.032,314.941,596.032,314.941Z" transform="translate(-107.973 -58.367)" fill="#da0b4e"/><path d="M596.968,348.7l-9.507,54.992-5.779-2.424L591.748,348.7l-10.785-24.984-9.4-21.754c2.181,1.748,4.444,3.362,6.573,4.787l5.723,12.75Z" transform="translate(-105.927 -55.962)" fill="#0a66ea"/><path d="M557.925,234.83l-17-8.9-23.473,3.642-4.856,21.45,12.089-.465,3.378-7.88v7.751l5.578-.215,3.237-12.546,2.024,13.356,19.831-.4Z" transform="translate(-94.998 -41.87)" fill="#16b1ff"/><ellipse cx="11.584" cy="4.344" rx="11.584" ry="4.344" transform="translate(417.764 644.44)" fill="#ff5b00"/><ellipse cx="11.584" cy="4.344" rx="11.584" ry="4.344" transform="translate(495.959 644.44)" fill="#ff5b00"/><path d="M234.823,614.516A81.309,81.309,0,0,1,154.34,619.2l1.793-3.658a77.8,77.8,0,1,0-43.458-67.381l-4.072.125a81.878,81.878,0,1,1,126.22,66.226Z" transform="translate(-20.12 -85.96)" fill="#fff"/><path d="M203.271,558.375c-12.046,2.666-28.076,4.291-39.757,2.595l14.663,11.166-41.05,26.476,2.208,3.423,41.05-26.476,4.127,17.967C187.784,582.185,195.876,568.252,203.271,558.375Z" transform="translate(-25.414 -103.482)" fill="#fff"/></svg>