<svg xmlns="http://www.w3.org/2000/svg" width="150.522" height="110.382" viewBox="0 0 150.522 110.382"><g opacity=".57"><path fill="#f42191" d="M143.973,134.67a29.672,29.672,0,0,0-16.739-10.622A20.036,20.036,0,0,0,110.38,93.16a19.16,19.16,0,0,0-13.013,4.861,40.182,40.182,0,0,0-37.16-24.93A38.674,38.674,0,0,0,31.828,84.852,38.665,38.665,0,0,0,20.069,113.23q0,1.019.157,3.371A35.059,35.059,0,0,0,0,148.352a33.824,33.824,0,0,0,10.309,24.811,33.817,33.817,0,0,0,24.812,10.31h85.3a30.07,30.07,0,0,0,23.555-48.8ZM99.6,132.555a2.415,2.415,0,0,1-1.763.743H80.277v27.6A2.542,2.542,0,0,1,77.77,163.4H62.715a2.543,2.543,0,0,1-2.508-2.507V133.3H42.646a2.412,2.412,0,0,1-2.507-2.507,2.947,2.947,0,0,1,.783-1.882l27.517-27.516a2.657,2.657,0,0,1,3.606,0l27.6,27.595a2.439,2.439,0,0,1,.7,1.8A2.412,2.412,0,0,1,99.6,132.555Z" transform="translate(0 -73.091) translate(0)"/></g></svg>